<svg height="512" viewBox="0 0 128 128" width="512" xmlns="http://www.w3.org/2000/svg"><g id="Circle_Grid" data-name="Circle Grid"><circle cx="64" cy="64" fill="#69b0ee" r="64"/></g><g id="icon"><path d="m60.934 97.166a7.062 7.062 0 1 1 -7.054-7.066 7.045 7.045 0 0 1 7.054 7.066z" fill="#414451"/><path d="m53.879 100.354a3.2 3.2 0 1 1 3.19-3.19 3.2 3.2 0 0 1 -3.19 3.19z" fill="#dbd8dd"/><path d="m88.516 97.166a7.062 7.062 0 1 1 -7.054-7.07 7.045 7.045 0 0 1 7.054 7.07z" fill="#414451"/><path d="m81.46 100.354a3.2 3.2 0 1 1 3.19-3.19 3.2 3.2 0 0 1 -3.19 3.19z" fill="#dbd8dd"/><path d="m98.945 71.947a3.5 3.5 0 0 1 -2.953 2.463l-48.671 7.33-7.871-41.358 64.7 4.9a2.257 2.257 0 0 1 1.99 2.905z" fill="#eeefee"/><path d="m95.69 90.1h-51.754a5.849 5.849 0 1 1 0-11.7h.791l-7.78-45.41h-8.808a1.75 1.75 0 1 1 0-3.5h10.284a1.749 1.749 0 0 1 1.725 1.455l8.38 48.911a1.75 1.75 0 0 1 -1.728 2.044h-2.864a2.348 2.348 0 1 0 0 4.7h51.754a1.75 1.75 0 0 1 0 3.5z" fill="#eeefee"/><path d="m33.537 28.75v4.817a.252.252 0 0 1 -.252.252h-8.867a2.661 2.661 0 0 1 -2.661-2.661 2.661 2.661 0 0 1 2.661-2.658h8.866a.252.252 0 0 1 .253.25z" fill="#575b6d"/><g fill="#dbd8dd"><rect height="20.126" rx="1.758" width="3.516" x="85.665" y="49.337"/><rect height="20.126" rx="1.758" width="3.516" x="71.088" y="49.337"/><rect height="20.126" rx="1.758" width="3.516" x="56.511" y="49.337"/></g><circle cx="72.846" cy="35.032" fill="#ef5261" r="11.252"/><path d="m78.379 36.025-5.533 6.974-5.532-6.974h2.865v-8.96h5.335v8.96z" fill="#eeefee"/></g></svg>